PathFileType	4	(X/Y/Z)	Patient4_TMGait_0pt7_01_right_10.trc.trc
DataRate	CameraRate	NumFrames	NumMarkers	Units	OrigDataRate	OrigDataStartFrame	OrigNumFrames
86.419753086420	86.419753086420	6	33	mm	86.419753086420	36	       141
Frame#	Time	Sacral			L.Shoulder			Chest			R.Shoulder			Neck			R.ASIS			L.ASIS			R.Thigh.Superior			R.Thigh.Lateral			R.Thigh.Inferior			R.Patella			L.Thigh.Superior			L.Thigh.Lateral			L.Thigh.Inferior			L.Patella			L.Shank.Superior			L.Shank.Lateral			L.Shank.Inferior			R.Shank.Superior			R.Shank.Lateral			R.Shank.Inferior			R.Heel			R.Midfoot.Superior			R.Midfoot.Lateral			R.Toe			L.Heel			L.Midfoot.Lateral			L.Midfoot.Superior			L.Toe			L.Elbow			L.Wrist			R.Elbow			R.Wrist			
		X1	Y1	Z1	X2	Y2	Z2	X3	Y3	Z3	X4	Y4	Z4	X5	Y5	Z5	X6	Y6	Z6	X7	Y7	Z7	X8	Y8	Z8	X9	Y9	Z9	X10	Y10	Z10	X11	Y11	Z11	X12	Y12	Z12	X13	Y13	Z13	X14	Y14	Z14	X15	Y15	Z15	X16	Y16	Z16	X17	Y17	Z17	X18	Y18	Z18	X19	Y19	Z19	X20	Y20	Z20	X21	Y21	Z21	X22	Y22	Z22	X23	Y23	Z23	X24	Y24	Z24	X25	Y25	Z25	X26	Y26	Z26	X27	Y27	Z27	X28	Y28	Z28	X29	Y29	Z29	X30	Y30	Z30	X31	Y31	Z31	X32	Y32	Z32	X33	Y33	Z33	

36	11.315000000000	821.994824726542	992.942221563724	472.262429766103	1008.320946717407	1424.676439236361	298.704020501083	1101.028835355847	1352.356679139259	465.984640220846	1008.096393713872	1430.497041517999	632.688713044048	1002.584894077692	1485.561854945382	453.396585652603	1046.148103851663	937.182643929654	603.598259881049	1041.932340986361	950.660592002962	326.220539871567	1114.816221047898	751.466204482900	578.998115742189	1045.476539907459	633.666622457513	635.355353114553	1134.865639550010	590.984646718454	562.103576848785	1147.518123545200	501.422313812477	570.122036541361	1069.499900966541	728.821127288561	353.545487773906	973.671200660852	618.967747728447	287.646625246022	1051.207327479291	529.591074125713	348.467090659727	1037.581985266149	445.417490834207	347.089772409445	968.430919299333	389.516036803395	340.145967177485	829.363475909993	345.253190555264	288.939693765189	814.298235249061	218.674843536089	348.608492854874	1124.019082632105	410.666232870483	577.247943988264	1055.806083655215	303.099806070321	635.438608339418	1109.162656372504	210.468364818227	578.483802026169	987.038869858392	42.531382794385	542.155820828091	1155.189963410256	97.945705714697	588.607316672317	1066.079399321789	36.851888834616	621.258847693967	1273.729076352661	48.890520368148	623.115173088186	623.803039210319	147.124182238868	385.482998873843	684.747188824064	104.515727601242	307.134856530411	787.258572060627	120.974706669640	329.368063751330	873.170929920752	31.274302233796	305.461959180260	1062.559288957717	1098.014050171703	151.474955286833	1309.726279948120	1138.025481254169	186.204525047917	855.675842945930	1123.863194024775	744.539011559632	803.555745841130	868.441021429699	759.689391711681	
37	11.326571428571	822.039460356901	994.825533401251	475.932763265107	1007.886707658285	1425.855253868158	300.197734602090	1101.994820032051	1353.568810840969	466.732427407055	1010.744187580642	1432.139368136480	634.107330327497	1003.535523960584	1486.857893388111	454.796722221779	1047.013056042487	938.581137631644	605.440292636598	1040.630214260422	951.945087990999	328.117233482451	1112.919734416621	750.755509954770	581.590236067172	1041.527005795053	633.966767029614	637.161683243842	1130.244902599618	590.237746916007	563.681956453571	1141.456248940259	500.770212405249	571.112596538673	1074.039275441132	731.894297790358	355.444269186671	982.666568612741	619.563242655926	289.043709084459	1063.433417412897	531.978376856974	349.529597069977	1051.066830634788	446.565271834126	347.574664137522	979.959514430079	390.909721459432	340.809256238037	839.129340442868	352.003100492662	289.821949420758	819.909647362843	225.629796678350	348.754802423687	1117.568346448632	410.333832162142	578.304988613091	1048.847849688872	303.020294610431	636.209003251650	1101.696373071100	210.242851820335	578.930269699863	979.041233711433	42.466166373174	542.310758298819	1147.004562266519	98.147592566515	588.637772949642	1058.042027278309	36.846433351433	621.442050696114	1265.680398046081	48.933547373116	623.374449133544	626.686027565942	163.995793736756	385.373958512895	685.201334640228	117.632667270857	307.050746511662	788.787330497905	127.346450244013	329.439202232384	868.074709300365	30.675662661258	305.588041761138	1055.627885240090	1096.189559332275	156.046292400172	1303.555153623827	1132.092583192472	189.768094654327	862.873836362046	1122.515379129413	746.375645185668	817.907276632890	865.411598772862	759.282379150453	
38	11.338142857143	821.908858019526	996.573451964307	479.539366268905	1007.130586555546	1426.812985731610	301.541404013864	1102.829793529080	1354.551980231681	467.215431758690	1013.470247767882	1433.514104704528	635.375775636921	1004.370967519157	1487.960867464111	456.075445050292	1047.718422568912	939.745030194442	607.114130918989	1039.078240119232	953.126301857846	329.888072781940	1110.768801759954	749.902278524601	583.969484377155	1037.503533557509	634.205651754136	638.930183424469	1125.416422388266	589.453286358667	565.112711407984	1135.178518223784	500.100444498194	572.058752634876	1078.450697840958	735.185927347032	357.275173346716	991.700249114705	620.543703152252	290.241221638225	1075.480146974862	534.897873116670	350.600361173823	1064.569909934774	448.338657218839	348.162975654892	991.786342105468	392.802606159684	341.508880539109	849.487763216164	358.835445073679	290.737788400097	826.460744480367	232.748849067503	349.033218947688	1110.981344069388	409.971250485589	579.283207875559	1041.846299755960	302.884866991594	636.966102798178	1094.180468281937	209.989250438404	579.324012534988	971.000835096123	42.418017420923	542.433771893436	1138.813006859250	98.226483057143	588.616341670221	1049.963698302677	36.822493254540	621.596040498236	1257.623711130659	48.809531766032	623.591003848087	631.109352302113	180.206147018988	385.492283786439	687.264444834891	130.693041688271	307.076674585584	791.602263631310	134.169954456503	329.626225929188	864.620485433269	30.646763513342	305.494596173826	1048.192372921372	1094.258081771263	160.515408591885	1297.016907128659	1124.919694500828	193.281460311891	870.423931482482	1120.905940360296	748.283200543834	833.588670485328	862.144198470665	758.968168281494	
39	11.349714285714	821.629527183209	998.161564229336	483.051686588100	1006.085438118897	1427.551788673277	302.726993480612	1103.536301014196	1355.290843502862	467.429291695155	1016.268178954540	1434.605863488059	636.484761474625	1005.119036057428	1488.871617384425	457.222224056042	1048.261166556009	940.688109836531	608.642479889356	1037.327392585158	954.201494185662	331.545317271416	1108.445478579007	748.991192000498	586.048468053775	1033.541841049873	634.417320327430	640.650076190171	1120.495743991014	588.665090272060	566.375370272153	1128.819713155417	499.436608192843	572.958379605922	1082.657897283677	738.706915677725	359.072002943521	1000.627154977579	621.961680854415	291.263803231817	1087.187643978110	538.375928537868	351.673779565081	1077.942051793424	450.768955231106	348.803300928025	1003.782364381577	395.207963183873	342.201738709069	860.284239109104	365.591796300507	291.680967802003	833.966863375758	239.794636692146	349.403532108258	1104.371970063982	409.590082575102	580.177249674912	1034.886068597408	302.722068821913	637.716640771418	1086.666698063662	209.715775308640	579.669992045168	962.918356043873	42.394228731035	542.544265187063	1130.633211079666	98.193000186509	588.577295045076	1041.848970241198	36.791276608519	621.734225585997	1249.562580498069	48.539300846154	623.772985587157	637.073645972396	195.066237508918	385.847703330629	691.061840723107	143.114787557147	307.206151407280	795.872299301768	141.169704585321	329.853777806918	863.297126539748	31.334836665775	305.109256992931	1040.294263672687	1092.232834443351	164.877866031035	1290.085946190500	1116.497347077744	196.707649126124	878.302497822127	1119.055389955528	750.251309422812	850.573769341367	858.756274224665	758.718634988722	
40	11.361285714286	821.230547495654	999.581612095661	486.454444056045	1004.793065489414	1428.092921587445	303.753241377510	1104.118571064717	1355.793771602881	467.381165273665	1019.123816750348	1435.427755960957	637.428143214975	1005.807513491730	1489.606560826019	458.227997854825	1048.647321365718	941.440664585532	610.047689929429	1035.437506215947	955.180803447927	333.102380445747	1106.024879187860	748.090695282633	587.783955095231	1029.716317198593	634.622469177361	642.301910981047	1115.566822938108	587.894735384334	567.465130096735	1122.480309278818	498.794913509987	573.798521104603	1086.598669945506	742.468109047018	360.861813864108	1009.319591477858	623.851701799596	292.137629553853	1098.436594848397	542.422402482467	352.725857108350	1091.063270221062	453.874171116809	349.432692137964	1015.853059328636	398.118826931891	342.833832018447	871.394137459109	372.092890962532	292.631722150467	842.469802356789	246.510585790479	349.811783803751	1097.818797269874	409.200406849613	580.982726640158	1028.012712713684	302.555940389018	638.453312331520	1079.189973344494	209.431928267958	579.972452117292	954.800574209514	42.395633741220	542.655761772364	1122.478514249513	98.072259354162	588.545764372832	1033.706884208019	36.761618360528	621.864805223763	1241.500363654485	48.158866903891	623.929216599424	644.572458206053	207.933722922350	386.422999970050	696.703535132203	154.323902273000	307.413747646784	801.775537779305	148.021010130816	330.040859845324	864.578698784453	32.803138786164	304.374196339743	1031.979819091390	1090.145059953339	169.143042440831	1282.720606484706	1106.803353641042	200.009381002459	886.503787123475	1116.996117927430	752.262539580133	868.861417813373	855.395663433149	758.475504914714	
41	11.372857142857	820.738267239251	1000.841209913593	489.742828066632	1003.299836744069	1428.470933615412	304.627091955921	1104.581749659725	1356.087950345690	467.090008744581	1022.015729105921	1436.014631744548	638.203859964672	1006.460181022404	1490.192081147170	459.088474179885	1048.891778115208	942.041165045998	611.344115562759	1033.469729502235	956.083345671829	334.569938848379	1103.567814265147	747.245248952641	589.175040676814	1026.046872357777	634.830459597860	643.861116475061	1110.680018826849	587.152252347162	568.388941606187	1116.222776188940	498.184115530372	574.560630062520	1090.224763613694	746.474318133496	362.658141222069	1017.669912354256	626.223785545012	292.888568426521	1109.144281197828	547.026572541954	353.721654583114	1103.840135138436	457.655374214274	349.991763745014	1027.934790714317	401.505598953853	343.353158223842	882.727035215343	378.147591889699	293.559104547329	852.027864329754	252.639374251503	350.197577803294	1091.364115696942	408.809941481137	581.693864189421	1021.241119209336	302.404561805730	639.161335092423	1071.768733604225	209.146869119308	580.232635380253	946.656799193304	42.417933376866	542.776035328562	1114.355860840347	97.895465415945	588.536123826904	1025.547878374867	36.739189660555	621.991679967798	1233.438846381901	47.710326606846	624.067108485910	653.600440343159	218.270169918670	387.173117402181	704.278230077776	163.805999649262	307.656725137367	809.479115086784	154.379086888273	330.110598517057	868.868626575683	34.999361734223	303.251527137850	1023.304042166333	1088.041849366557	173.330422149399	1274.861803718879	1095.809191191513	203.152767443341	895.033880011623	1114.771414924054	754.293988157847	888.465819140029	852.241040265863	758.154003338662	
